<svg width="984" height="255" viewBox="0 0 984 255" fill="none" xmlns="http://www.w3.org/2000/svg">
<path d="M595.909 64.3401C596.307 65.1481 596.098 65.7831 595.853 66.6197C595.745 66.9921 595.745 66.9921 595.635 67.372C595.555 67.6355 595.475 67.899 595.393 68.1704C595.27 68.5789 595.27 68.5789 595.144 68.9956C594.903 69.78 594.657 70.5624 594.408 71.3441C594.352 71.5247 594.295 71.7054 594.237 71.8915C592.152 78.3841 586.988 86.0722 581.654 90.4487C581.342 90.8658 581.342 90.8658 581.418 91.4942C581.8 92.9078 582.407 94.228 582.997 95.5658C583.088 95.7815 583.178 95.9972 583.272 96.2195C583.399 96.5117 583.399 96.5117 583.529 96.8098C583.652 97.3588 583.652 97.3588 583.466 97.8841C582.969 98.6362 582.348 99.2718 581.729 99.9228C581.457 100.213 581.184 100.504 580.912 100.795C580.781 100.935 580.649 101.076 580.514 101.22C579.789 102 579.089 102.801 578.399 103.612C578.056 103.953 578.056 103.953 577.706 104.3C577.059 105.07 577.059 105.07 577.184 105.99C577.269 106.33 577.362 106.668 577.461 107.005C577.509 107.192 577.557 107.378 577.606 107.571C577.717 108.001 577.83 108.43 577.947 108.859C578.312 110.224 578.646 111.597 578.981 112.969C579.101 113.457 579.226 113.944 579.35 114.431C579.424 114.732 579.499 115.033 579.577 115.344C579.645 115.614 579.713 115.884 579.783 116.162C579.899 116.862 579.843 117.206 579.65 117.87C577.065 115.286 574.48 112.701 571.895 110.116C571.683 110.332 571.683 110.332 571.467 110.552C570.829 111.2 570.19 111.846 569.55 112.492C569.328 112.719 569.105 112.946 568.876 113.179C568.663 113.394 568.45 113.608 568.231 113.829C568.035 114.028 567.838 114.227 567.636 114.432C567.143 114.869 567.143 114.869 566.642 114.869C566.606 114.63 566.569 114.392 566.532 114.146C566.396 113.26 566.259 112.375 566.122 111.49C566.063 111.107 566.004 110.724 565.945 110.341C565.86 109.79 565.775 109.239 565.69 108.688C565.651 108.432 565.651 108.432 565.611 108.17C565.499 107.456 565.371 106.801 565.142 106.114C564.564 106.609 563.986 107.104 563.391 107.615C562.067 106.512 560.842 105.344 559.638 104.113C558.855 104.896 558.072 105.68 557.29 106.465C556.254 107.505 555.218 108.544 554.181 109.583C553.557 110.208 552.933 110.834 552.309 111.461C551.586 112.188 550.861 112.914 550.136 113.64C549.915 113.862 549.694 114.084 549.466 114.313C548.359 115.421 547.238 116.494 546.046 117.51C545.46 118.018 544.92 118.566 544.38 119.121C543.524 119.986 542.651 120.804 541.727 121.595C540.885 122.337 540.07 123.106 539.252 123.874C538.131 124.924 537.009 125.967 535.844 126.968C535.278 127.46 534.725 127.965 534.171 128.47C533.31 129.248 532.432 129.994 531.529 130.721C530.525 131.533 529.565 132.376 528.621 133.254C527.481 134.313 526.306 135.313 525.094 136.288C524.271 136.961 523.468 137.655 522.664 138.351C521.359 139.479 520.024 140.558 518.66 141.615C517.665 142.39 516.696 143.19 515.739 144.01C514.21 145.318 512.636 146.562 511.048 147.797C510.48 148.24 509.914 148.685 509.348 149.131C505.798 151.927 502.234 154.701 498.604 157.393C498.325 157.6 498.325 157.6 498.04 157.811C495.528 159.672 493.003 161.516 490.465 163.342C489.719 163.879 488.975 164.418 488.233 164.959C486.393 166.297 484.544 167.617 482.664 168.898C482.36 169.106 482.36 169.106 482.049 169.318C479.836 170.828 477.62 172.331 475.4 173.83C474.944 174.139 474.487 174.448 474.03 174.757C471.093 176.748 468.133 178.69 465.123 180.568C464.361 181.046 463.602 181.53 462.844 182.013C455.451 186.725 447.879 191.133 440.132 195.235C439.589 195.522 439.047 195.811 438.505 196.1C409.875 211.383 409.875 211.383 396.604 207.995C394.4 207.235 392.355 205.5 391.293 203.419C389.577 199.461 390.679 195.014 392.189 191.176C395.702 182.678 401.48 175.067 407.469 168.157C408.209 167.303 408.927 166.438 409.632 165.554C410.75 164.174 411.96 162.889 413.183 161.603C413.944 160.803 414.691 159.997 415.412 159.16C416.387 158.038 417.418 156.978 418.465 155.923C418.649 155.734 418.834 155.544 419.024 155.349C419.204 155.167 419.384 154.986 419.569 154.8C419.729 154.637 419.89 154.474 420.055 154.306C420.612 153.848 421.131 153.624 421.81 153.391C421.783 153.072 421.783 153.072 421.756 152.748C421.732 152.454 421.709 152.161 421.685 151.858C421.662 151.574 421.639 151.29 421.615 150.997C420.492 132.464 427.564 113.992 439.715 100.161C440.566 99.2095 441.438 98.2797 442.322 97.3588C442.535 97.135 442.749 96.9113 442.969 96.6807C444.202 95.4167 445.49 94.2712 446.871 93.1719C447.332 92.8012 447.786 92.4216 448.232 92.0326C451.872 88.8628 456.048 86.3052 460.332 84.1013C460.532 83.9982 460.731 83.8952 460.937 83.789C477.329 75.4278 496.828 74.0381 514.343 79.5919C521.936 82.1237 529.149 85.809 535.375 90.8551C535.604 91.0367 535.834 91.2182 536.07 91.4052C537.922 92.8867 539.659 94.4778 541.378 96.1081C541.58 96.2973 541.58 96.2973 541.786 96.4903C542.174 96.8551 542.558 97.2235 542.942 97.5933C543.165 97.8071 543.388 98.0209 543.618 98.2412C544.165 98.9018 544.352 99.2578 544.38 100.11C544.215 100.358 544.05 100.606 543.88 100.861C542.501 100.764 541.9 100.551 540.987 99.5163C532.108 90.1023 518.581 84.6906 506.108 82.6005C505.896 82.5644 505.683 82.5284 505.464 82.4913C497.322 81.1903 488.52 82.0703 480.594 84.1013C480.278 84.182 480.278 84.182 479.957 84.2642C469.84 86.9247 460.587 92.3744 453.078 99.6101C452.925 99.7563 452.772 99.9025 452.614 100.053C450.393 102.184 448.4 104.386 446.574 106.864C446.469 107.004 446.364 107.144 446.255 107.289C436.712 119.998 432.346 136.38 434.568 152.14C436.031 161.339 439.308 170.489 445.074 177.904C444.389 178.641 443.743 179.138 442.856 179.609C442.616 179.737 442.376 179.865 442.129 179.997C441.745 180.199 441.745 180.199 441.353 180.406C440.812 180.694 440.272 180.982 439.732 181.271C439.457 181.417 439.181 181.563 438.898 181.714C437.367 182.533 435.848 183.373 434.329 184.212C434.008 184.388 434.008 184.388 433.681 184.567C433.496 184.67 433.31 184.772 433.118 184.878C432.53 185.177 431.932 185.422 431.316 185.659C426.814 178.77 424.188 170.21 422.811 162.146C422.615 162.311 422.419 162.476 422.217 162.646C421.56 163.146 421.56 163.146 421.06 163.146C420.996 163.292 420.933 163.438 420.867 163.588C420.526 164.207 420.149 164.598 419.637 165.085C418.636 166.063 417.717 167.085 416.808 168.149C416.484 168.523 416.484 168.523 416.154 168.904C403.858 182.294 403.858 182.294 397.687 198.807C397.806 199.74 397.936 200.204 398.547 200.917C401.253 202.575 405.053 201.699 407.978 201.035C420.554 197.94 432.687 191.467 443.862 185.064C444.576 184.657 445.292 184.255 446.01 183.854C450.848 181.149 455.564 178.257 460.239 175.279C460.833 174.903 461.429 174.53 462.026 174.157C469.978 169.174 477.721 163.806 485.307 158.284C485.85 157.89 486.395 157.5 486.941 157.109C489.442 155.319 491.897 153.475 494.339 151.604C495.457 150.748 496.583 149.902 497.713 149.06C499.389 147.808 501.039 146.523 502.679 145.223C503.106 144.886 503.534 144.551 503.962 144.216C505.697 142.861 507.413 141.485 509.118 140.093C510.199 139.211 511.292 138.347 512.393 137.491C513.747 136.436 515.057 135.338 516.355 134.214C517.217 133.468 518.088 132.736 518.975 132.019C520.397 130.864 521.777 129.663 523.159 128.459C523.927 127.79 524.701 127.128 525.477 126.468C527 125.172 528.487 123.843 529.956 122.485C530.505 121.981 531.059 121.485 531.623 120.997C532.85 119.932 534.041 118.828 535.237 117.727C535.85 117.164 536.464 116.603 537.079 116.041C537.456 115.694 537.834 115.347 538.211 115C538.474 114.758 538.738 114.517 539.003 114.276C542.168 111.388 545.18 108.345 548.202 105.31C548.901 104.609 549.601 103.908 550.301 103.207C551.663 101.842 553.025 100.476 554.385 99.1098C553.984 98.2567 553.534 97.7045 552.853 97.0461C552.672 96.8694 552.491 96.6927 552.304 96.5107C552.096 96.3114 552.096 96.3114 551.884 96.1081C552.289 95.1981 552.723 94.6841 553.385 93.8568C550.496 93.3616 547.607 92.8663 544.63 92.356C545.072 91.4726 545.374 91.0519 546.055 90.3822C546.234 90.2049 546.413 90.0275 546.597 89.8448C546.784 89.6623 546.97 89.4798 547.163 89.2917C547.351 89.1054 547.54 88.919 547.734 88.727C548.199 88.2679 548.665 87.81 549.133 87.3531C548.762 86.095 548.02 85.3922 547.106 84.5029C546.957 84.3548 546.808 84.2066 546.654 84.054C546.179 83.5833 545.702 83.1153 545.224 82.6474C544.901 82.3278 544.578 82.0082 544.255 81.6883C543.465 80.9064 542.672 80.1269 541.878 79.3486C541.961 79.1835 542.043 79.0184 542.129 78.8483C542.266 78.8859 542.404 78.9235 542.546 78.9623C543.982 79.3541 545.418 79.7432 546.855 80.1308C547.391 80.2757 547.927 80.4213 548.462 80.5676C549.233 80.778 550.005 80.9859 550.776 81.1934C551.134 81.2919 551.134 81.2919 551.499 81.3924C553.167 81.843 553.167 81.843 554.886 81.85C555.424 81.4515 555.846 81.0874 556.308 80.615C556.57 80.3616 556.832 80.1088 557.094 79.8567C557.291 79.6657 557.291 79.6657 557.492 79.4708C558.487 78.5339 559.572 77.6988 560.639 76.8472C560.841 76.656 561.042 76.4648 561.25 76.2678C561.89 75.8466 561.89 75.8466 562.568 75.8447C563.908 76.2553 565.165 76.8401 566.439 77.4208C566.644 77.5107 566.848 77.6007 567.059 77.6934C567.243 77.7769 567.427 77.8605 567.617 77.9466C568.235 78.1242 568.548 78.0724 569.144 77.8478C569.549 77.4955 569.549 77.4955 569.941 77.0348C572.866 74.0127 576.556 71.7286 580.15 69.5931C580.365 69.4643 580.579 69.3355 580.8 69.2028C584.269 67.1405 587.775 65.69 591.657 64.5902C591.921 64.5119 592.185 64.4336 592.458 64.3529C592.721 64.2794 592.985 64.2058 593.257 64.13C593.496 64.0623 593.734 63.9946 593.98 63.9249C594.796 63.8226 595.205 63.9191 595.909 64.3401Z" fill="#11ABD4"/>
<path d="M556.137 116.37C557.649 117.934 558.621 120.128 559.607 122.045C559.683 122.191 559.758 122.337 559.836 122.487C567.726 137.84 569.051 156.239 563.874 172.689C560.493 183.051 555.186 193.164 547.25 200.799C546.822 201.214 546.822 201.214 546.272 201.918C545.626 202.674 544.95 203.289 544.194 203.931C543.81 204.263 543.434 204.605 543.065 204.955C531.237 216.153 513.639 223.399 497.305 223.481C497.069 223.483 496.833 223.485 496.59 223.486C495.834 223.491 495.077 223.492 494.32 223.493C493.933 223.493 493.933 223.493 493.537 223.493C489.749 223.489 486.077 223.385 482.345 222.68C482.104 222.637 481.863 222.594 481.615 222.55C470.075 220.469 459.187 215.563 450.077 208.172C449.934 208.056 449.791 207.941 449.644 207.822C447.927 206.429 446.29 204.951 444.667 203.45C444.495 203.292 444.323 203.135 444.146 202.972C443.985 202.821 443.823 202.67 443.657 202.514C443.514 202.381 443.371 202.248 443.223 202.111C442.75 201.588 442.418 201.03 442.072 200.417C443.725 199.407 445.399 198.456 447.106 197.541C449.191 196.413 451.251 195.249 453.297 194.054C453.545 193.909 453.793 193.765 454.049 193.615C454.285 193.477 454.521 193.338 454.765 193.195C454.989 193.064 455.214 192.932 455.445 192.797C456.196 192.342 456.924 191.857 457.644 191.353C458.23 191.097 458.49 191.188 459.082 191.412C459.533 191.653 459.533 191.653 459.997 191.95C460.173 192.061 460.348 192.171 460.529 192.285C460.717 192.405 460.905 192.524 461.098 192.647C471.386 199.025 483.116 202.551 495.243 202.496C495.462 202.496 495.68 202.495 495.906 202.495C510.787 202.436 525.314 197.159 536.265 186.973C536.786 186.492 537.317 186.035 537.861 185.581C549.617 175.312 556.011 158.902 557.137 143.635C557.219 142.041 557.223 140.447 557.215 138.851C557.215 138.64 557.215 138.429 557.214 138.212C557.19 131.544 556.236 125.013 554.286 118.627C554.118 117.784 554.16 117.196 554.386 116.37C555.078 116.024 555.408 116.136 556.137 116.37Z" fill="black"/>
<path d="M535.374 90.8552C535.604 91.0368 535.834 91.2183 536.07 91.4053C537.921 92.8868 539.659 94.4778 541.378 96.1082C541.513 96.2343 541.647 96.3604 541.786 96.4904C542.174 96.8551 542.558 97.2235 542.941 97.5934C543.276 97.9141 543.276 97.9141 543.617 98.2412C544.164 98.9019 544.352 99.2579 544.38 100.11C544.214 100.358 544.049 100.606 543.879 100.861C542.501 100.764 541.9 100.552 540.987 99.5164C532.108 90.1024 518.58 84.6907 506.108 82.6005C505.895 82.5645 505.683 82.5285 505.464 82.4913C497.322 81.1904 488.52 82.0703 480.593 84.1014C480.383 84.1552 480.173 84.2089 479.956 84.2643C469.839 86.9248 460.587 92.3745 453.078 99.6102C452.925 99.7564 452.772 99.9026 452.614 100.053C450.393 102.184 448.399 104.387 446.574 106.864C446.416 107.074 446.416 107.074 446.255 107.289C436.712 119.998 432.345 136.38 434.567 152.14C436.031 161.339 439.308 170.489 445.073 177.905C444.388 178.641 443.743 179.138 442.855 179.609C442.496 179.801 442.496 179.801 442.129 179.997C441.745 180.2 441.745 180.2 441.352 180.406C440.812 180.694 440.272 180.982 439.731 181.271C439.456 181.417 439.181 181.563 438.898 181.714C437.367 182.533 435.848 183.373 434.329 184.212C434.115 184.33 433.901 184.447 433.681 184.567C433.495 184.67 433.31 184.772 433.118 184.878C432.53 185.177 431.932 185.422 431.316 185.659C425.405 176.615 423.182 165.707 422.06 155.142C422.033 154.895 422.007 154.648 421.979 154.393C421.905 153.705 421.833 153.016 421.763 152.328C421.742 152.132 421.721 151.936 421.7 151.734C419.976 133.992 426.983 115.627 438.104 102.049C439.451 100.43 440.864 98.8783 442.322 97.3589C442.535 97.1351 442.749 96.9113 442.969 96.6808C444.201 95.4168 445.49 94.2712 446.871 93.172C447.332 92.8013 447.786 92.4217 448.231 92.0326C451.872 88.8628 456.048 86.3053 460.332 84.1014C460.631 83.9468 460.631 83.9468 460.937 83.7891C483.483 72.2887 512.478 73.9301 535.374 90.8552Z" fill="black"/>
<path d="M541.878 78.8484C542.992 79.0961 542.992 79.0961 544.129 79.3487C544.047 79.9266 543.964 80.5044 543.879 81.0997C543.591 80.8672 543.305 80.6322 543.019 80.3962C542.78 80.2003 542.78 80.2003 542.536 80.0005C542.128 79.5989 542.128 79.5989 541.878 78.8484Z" fill="#16A8CD"/>
<path d="M541.878 78.8484C542.992 79.0961 542.992 79.0961 544.129 79.3487C543.129 79.849 543.129 79.849 542.378 79.849C542.213 79.5188 542.048 79.1886 541.878 78.8484Z" fill="#1FA2C7"/>
<path d="M886.824 194.914C886.989 195.162 887.154 195.409 887.324 195.664C886.911 196.16 886.499 196.655 886.073 197.165C885.908 197.083 885.743 197 885.573 196.915C885.986 196.255 886.399 195.594 886.824 194.914Z" fill="#19A7C8"/>
<path d="M156.169 88.5879C155.816 93.8839 155.125 98.6275 153.791 103.704C151.954 111.028 150.6 118.446 149.315 125.945C149.128 127.027 148.942 128.109 148.75 129.224C147.892 134.306 147.098 139.384 146.432 144.511C145.867 148.848 145.131 153.03 144.232 157.279C143.412 161.169 142.652 165.031 142.035 168.978C137.843 195.571 132.192 221.58 113.62 238.215C108.282 242.614 102.868 244.317 96.4835 243.345C90.4425 241.212 86.8674 235.573 83.8062 229.064C82.5091 226.135 81.2768 223.166 80.07 220.178C79.5776 220.178 79.0852 220.178 78.5779 220.178C78.0354 221.622 78.0354 221.622 77.4821 223.095C74.5422 230.755 71.6002 238.256 66.6408 244.271C66.1484 244.271 65.6559 244.271 65.1486 244.271C65.1486 244.883 65.1486 245.495 65.1486 246.125C64.111 246.886 63.0687 247.637 62.0245 248.384C61.1546 249.013 61.1546 249.013 60.2671 249.654C54.4742 253.143 47.5643 252.331 41.6125 249.879C38.4775 248.211 35.7756 245.897 33.0677 243.345C32.4589 242.799 31.8501 242.253 31.2229 241.691C29.0263 239.3 27.4782 236.621 25.8867 233.615C23.7147 229.554 23.7147 229.554 21.3899 225.629C20.2687 223.683 19.6218 221.833 18.939 219.598C18.686 218.784 18.4331 217.969 18.1725 217.13C17.9177 216.301 17.6628 215.472 17.4002 214.617C16.9052 213.072 16.4078 211.527 15.9081 209.984C15.6764 209.262 15.4448 208.539 15.2061 207.795C14.71 206.26 14.2071 204.729 13.6945 203.203C11.886 197.766 10.4561 192.325 9.24008 186.643C9.05128 185.765 8.86249 184.888 8.66796 183.984C4.96681 166.503 2.4382 149.204 0.986697 131.216C0.887639 130.076 0.78858 128.936 0.68652 127.762C0.210653 121.495 0.12391 115.208 0.0541105 108.917C0.0380617 108.066 0.0220128 107.215 0.00547762 106.339C-0.0182307 100.358 -0.0182307 100.358 1.18487 97.3371C4.86988 93.5332 10.7714 94.8324 15.3146 94.8012C16.3809 94.7906 17.4471 94.7718 18.5131 94.7442C27.8114 94.5036 36.4932 95.383 44.2587 102.488C47.5458 107.123 48.092 109.414 48.0823 115.578C48.0852 117.359 48.0852 117.359 48.0881 119.176C48.0423 122.904 47.8356 126.603 47.6209 130.322C47.1384 139.397 47.0924 148.465 47.0652 157.557C47.0622 158.431 47.0591 159.304 47.056 160.204C47.0406 164.812 47.0298 169.421 47.0228 174.029C47.0145 178.756 46.9887 183.483 46.9592 188.211C46.9396 191.881 46.9335 195.552 46.9308 199.223C46.9272 200.965 46.9186 202.708 46.9046 204.451C46.5328 217.955 46.5328 217.955 50.2272 230.371C51.748 231.57 51.748 231.57 53.2115 232.225C59.9645 226.404 63.1661 216.756 65.443 207.171C65.8947 205.351 65.8947 205.351 66.6058 203.222C71.5192 187.464 72.3453 169.3 72.9823 152.587C73.3086 145.338 73.8212 138.883 77.3189 132.895C81.0752 129.699 86.2261 130.566 90.515 131.216C94.4525 132.557 97.3296 134.183 99.4678 138.629C99.7241 141.556 99.7241 141.556 99.6747 145.069C99.6624 146.033 99.6624 146.033 99.6499 147.017C99.5111 154.778 99.0437 162.522 98.5525 170.259C98.3929 172.781 98.2414 175.304 98.0908 177.827C97.9917 179.44 97.8921 181.052 97.792 182.665C97.7469 183.415 97.7018 184.165 97.6554 184.937C97.465 187.89 97.2408 190.482 96.4835 193.304C96.2907 196.736 96.3108 200.173 96.297 203.613C96.2816 204.547 96.2662 205.481 96.2504 206.444C96.2279 211.828 96.6291 216.23 98.2387 221.249C98.7217 222.958 98.7217 222.958 98.7217 225.738C100.525 225.69 100.525 225.69 102.452 224.811C107.016 216.175 108.736 204.619 110.881 194.77C111.361 192.577 111.855 190.389 112.358 188.203C116.068 172.024 119.239 155.701 122.126 139.268C124.176 127.604 126.335 115.998 128.798 104.457C129.04 103.308 129.283 102.158 129.533 100.973C129.765 99.908 129.996 98.8432 130.234 97.7462C130.535 96.3613 130.535 96.3613 130.841 94.9485C131.62 92.0259 132.573 89.4177 133.787 86.7345C139.908 82.933 149.763 87.1318 156.169 88.5879Z" fill="black"/>
<path d="M222.374 107.311C228.338 112.512 234.451 119.457 235.859 128.688C236.92 142.641 236.704 157.347 231.645 170.107C231.38 170.785 231.115 171.463 230.841 172.162C223.578 190.132 210.025 199.686 196.152 208.621C195.899 213.137 196.527 215.704 198.353 219.6C198.761 220.487 199.17 221.375 199.591 222.29C200.502 224.313 200.502 224.313 201.397 225.351C207.855 226.401 211.966 223.531 217.13 218.844C218.95 216.758 220.657 214.59 222.362 212.36C225.271 208.738 228.096 206.602 232.301 206.355C235.11 206.762 235.11 206.762 236.386 207.898C237.651 210.049 237.706 211.433 237.732 214.081C237.756 214.865 237.779 215.648 237.803 216.456C237.166 219.873 235.711 221.196 233.612 223.492C232.64 224.577 232.64 224.577 231.648 225.685C227.619 229.928 223.532 233.861 219.096 237.433C218.669 237.781 218.242 238.128 217.801 238.485C215.169 240.549 212.505 243.855 209.518 244.93C209.518 244.298 209.518 245.543 209.518 244.93C202.964 248.286 194.703 249.811 187.81 247.007C184.692 245.382 181.794 243.366 178.921 241.151C178.921 240.538 177.465 240.21 177.465 239.578C177.921 239.829 177.021 239.333 177.465 239.578C169.758 234.366 166.18 220.58 163.813 210.671C163.04 207.217 162.351 203.744 161.689 200.256C161.504 199.334 161.318 198.413 161.127 197.464C158.396 181.294 159.797 164.676 163.937 149.136C164.245 147.973 164.553 146.809 164.87 145.611C169.745 129.729 179.973 114.847 192.345 107.242C192.86 106.958 193.374 106.674 193.905 106.381C194.396 106.088 194.888 105.794 195.394 105.492C203.525 101.332 214.645 102.45 222.374 107.311Z" fill="black"/>
<path d="M341.229 53.2394C344.463 53.7938 347.314 54.7405 350.371 56.0951C350.939 56.3436 351.507 56.5921 352.093 56.8482C360.674 60.7394 369.504 66.449 374.71 75.8583C375.354 81.6554 374.397 87.4932 373.371 93.1439C373.212 94.0251 373.052 94.9064 372.888 95.8144C371.124 104.97 368.755 113.886 366.342 122.817C366.052 123.892 366.052 123.892 365.756 124.987C363.388 133.721 360.847 142.355 358.14 150.944C348.14 179.2 348.14 179.2 347.933 208.612C354.666 208.071 357.759 203.895 362.158 198.24C363.978 195.949 363.978 195.949 364.764 193.861C371.395 193.455 371.395 193.455 374.71 196.627C376.24 199.393 376.24 199.393 376.222 201.535C375.193 204.932 373.319 206.953 371.171 209.361C370.323 210.346 369.477 211.332 368.631 212.321C368.02 213.032 368.02 213.032 367.396 213.757C366.066 215.336 364.83 216.985 363.616 218.695C345.932 243.59 345.932 243.59 337.646 244.85C333.277 245.109 330.662 244.473 327.276 240.878C324.197 236.653 322.533 233.231 321.585 227.694C321.118 224.988 320.588 222.305 320.055 219.617C319.765 218.055 319.765 218.055 319.47 216.462C319.076 214.37 318.656 212.285 318.202 210.211C314.552 191.368 315.766 169.551 318.095 150.532C318.243 149.303 318.243 149.303 318.394 148.049C319.855 136.267 321.999 124.826 324.589 113.336C325.739 108.224 326.759 103.084 327.754 97.9262C328.98 91.597 330.351 85.362 331.893 79.1317C332.461 76.6116 332.952 74.1297 333.393 71.5765C333.522 70.8346 333.651 70.0927 333.783 69.3283C334.028 67.8854 334.264 66.4403 334.49 64.9929C336.313 54.2183 336.313 54.2183 341.229 53.2394Z" fill="black"/>
<path d="M292.745 69.2176C296.661 72.4391 300.567 76.615 301.913 82.323C303 92.4552 300.975 102.206 299.219 112.046C298.755 114.743 298.39 117.452 298.045 120.177C297.422 125.006 296.528 129.721 295.559 134.463C295.147 136.903 294.884 139.186 294.691 141.656C294.341 145.812 293.569 149.644 292.602 153.642C292.256 155.116 291.911 156.589 291.566 158.063C291.385 158.834 291.203 159.606 291.016 160.4C290.229 163.792 289.486 167.198 288.74 170.603C286.907 178.96 284.958 187.243 282.798 195.482C281.093 202.123 280.087 208.779 282.813 215.25C286.877 214.859 289.082 214.121 291.981 210.569C293.02 208.883 294.003 207.175 294.95 205.409C296.212 203.342 297.225 203.102 299.287 202.671C303.155 203.274 305.715 205.884 308.789 208.697C308.337 211.846 307.502 213.453 305.733 215.776C303.486 218.805 301.341 221.898 299.239 225.079C284.791 246.765 284.791 246.765 276.191 248.401C271.059 248.73 267.6 247.474 263.713 243.333C261.947 240.875 261.947 240.875 260.657 238.652C260.292 238.229 259.927 237.805 259.55 237.369C252.727 228.587 251.867 214.56 252.015 203.139C252.022 202.05 252.029 200.962 252.036 199.84C252.297 177.226 252.297 177.226 254.17 168.507C254.608 166.25 254.735 164.105 254.847 161.789C254.897 160.811 254.948 159.834 255 158.826C255.055 157.753 255.11 156.679 255.166 155.573C257.755 108.774 257.755 108.774 261.55 86.4257C262.192 82.6399 262.47 78.8797 262.672 75.0236C263.17 71.3169 264.49 69.8346 266.769 67.3453C274.651 61.1811 284.992 64.1689 292.745 69.2176Z" fill="black"/>
<path d="M214.767 121.002C218.592 125.31 219.569 132.012 220.036 138.337C220.364 151.811 216.733 163.733 210.033 173.923C204.764 181.257 199.679 187.734 191.75 188.113C191.141 166.644 193.515 143.87 204.807 127.227C209.995 120.25 209.995 120.25 214.767 121.002Z" fill="white"/>
<path d="M804.339 39.5258C804.846 46.967 805.116 51.6659 801.384 58.2409C796.684 62.9408 792.841 64.1955 786.231 64.5115C784.637 64.4854 783.044 64.4593 781.402 64.4324C777.153 64.3627 777.153 64.3627 772.819 64.2917C772.076 60.5768 771.333 56.8619 770.567 53.0344C781.91 43.1351 789.036 37.613 804.339 39.5258Z" fill="white"/>
<path d="M934.922 98.0633C936.408 98.0633 937.894 98.0633 939.425 98.0633C941.741 105.009 941.978 109.927 941.958 117.201C941.964 119.36 941.97 121.519 941.976 123.744C941.677 129.584 941.677 129.584 939.425 136.338C934.773 137.982 934.773 137.982 929.153 139.011C927.293 139.368 925.432 139.725 923.516 140.093C922.079 140.34 920.643 140.587 919.162 140.841C919.896 124.704 927.39 112.091 934.922 98.0633Z" fill="white"/>
<mask id="path-14-inside-1_7_871" fill="white">
<path d="M768.316 0.2975L768.316 0.297474C756.736 -0.25391 748.352 -0.786273 738.484 6.0668C705.904 34.9447 693.343 74.0679 686.701 116.106L685.012 128.63L657.995 130.881C659.799 119.495 662.251 108.377 664.916 97.1668L666.719 89.6517C670.621 73.0724 674.852 56.8965 680.509 40.8235L685.294 41.3864C694.22 40.6102 698.605 37.7122 705.275 31.8177C706.119 24.5005 706.119 24.5005 705.275 18.309L700.772 16.0576C687.776 14.7132 679.704 15.9901 668.971 23.621C643.404 45.9917 643.404 45.9917 629.338 133.732L628.726 137.636L615.217 142.139C613.81 147.486 613.81 147.486 612.966 153.396C617.469 157.899 617.469 157.899 622.253 159.306L626.474 160.15C624.263 173.538 624.263 173.538 622.112 205.742L621.607 213.815L621.066 221.537C620.719 228.389 620.351 244.166 619.352 250.225C618.353 256.284 645.993 254.951 647.746 250.225C649.5 245.5 648.658 212.821 648.848 210.104C650.169 190.247 652.443 170.774 655.743 151.144L680.509 148.893C678.258 160.15 678.258 160.15 677.66 166.146L677.211 172.498C676.851 177.2 676.496 181.902 676.147 186.605L675.641 193.878L675.1 200.782C674.776 206.881 668.5 245.525 670.817 248.451C671 250.5 678.5 251 678.5 251H688.5C688.5 251 695.296 251.901 701.898 248.451C708.5 245 703.701 199.643 706.401 176.42L707.527 166.904L709.778 144.39H759.31C759.137 151.493 758.975 158.596 758.87 165.7L758.747 174.503C758.522 182.914 758.427 191.277 758.582 199.69C759.959 214.337 765.753 231.562 777.321 241.202C786.012 242.683 793.713 241.742 802.087 238.951C807.959 234.08 811.048 230.037 814.435 223.155L817.285 215.873L820.204 208.521L822.35 202.928C825.868 213.224 828.761 223.606 835.859 232.479C839.409 237.803 856.102 236.023 867.379 234.448C876.246 231.645 883.421 228.914 888.126 220.623L889.894 216.436C891.425 216.436 891.162 216.507 892.648 216.507C892.648 218.038 894.397 220.939 894.397 220.939C894.423 221.831 901.968 229.046 907.905 232.196C915.127 236.028 928.084 234.144 937.548 231.092C962.256 219.246 973.654 195.607 983.155 171.434C980.632 171.447 977.429 171.421 974.956 171.434C967.398 174.119 967.398 174.119 961.052 186.222L961.052 186.222C957.104 194.193 953.248 202.193 948.431 209.682C941.078 216.638 936.012 219.785 925.917 220.939C914.788 196.725 914.788 196.725 916.911 169.156C922.847 166.155 928.786 163.171 934.803 160.337C937.902 158.889 940.995 157.428 944.082 155.955L948.853 153.677C954.944 150.883 960.837 148.077 966.443 144.39C972.214 137.68 973.121 133.885 974.015 125.042L973.901 116.247C973.869 105.761 973.509 97.5137 968.694 88.1039C961.956 80.7714 958.592 79.2081 948.572 78.2538C933.666 79.1732 923.385 83.9321 912.461 94.0403C890.26 119.97 884.732 153.002 885.672 186.042C886.374 197.305 887.489 206.159 880.211 215.398C873.429 221.582 869.67 222.77 860.625 223.191C855.408 213.664 853.056 203.94 850.74 193.377C846.63 168.032 845.796 130.61 860.625 108.367L862.876 119.624C872.537 119.211 880.616 118.973 888.909 113.714C893.39 106.31 893.072 101.108 892.145 92.6068C887.452 85.5667 886.337 83.984 878.636 81.3495C863.845 80.1321 852.707 81.7134 840.362 90.3553C823.453 107.264 823.453 107.264 818.78 153.158C817.125 169.741 814.462 184.958 808.536 200.574L806.731 205.179C803.359 213.815 798.398 223.493 791 229.5C790.5 229.906 789.46 232.342 788.5 228C785.224 215.845 787.949 190.678 787.84 178.111L787.875 170.844C787.883 154.991 788.243 140.104 792.096 124.69C794.868 115.869 795.526 110.615 793.081 101.613L788.394 101.868L782.246 102.316L776.152 102.712C769.594 104.065 767.549 105.09 763.813 110.618L761.561 124.127H716.532C716.17 111.956 716.17 111.956 717.387 105.38L718.599 100.399L719.964 94.7884L721.457 88.9482C725.393 73.356 729.906 58.6707 736.54 43.9984C738.332 40.1194 740.015 36.1895 741.624 32.2311L743.55 27.3148C751.366 27.8731 757.015 27.3288 764.516 24.9227C770.567 20.5605 770.567 20.5605 772.818 12.5397C772.818 4.80038 772.818 4.80037 768.316 0.2975Z"/>
</mask>
<path d="M768.316 0.2975L768.316 0.297474C756.736 -0.25391 748.352 -0.786273 738.484 6.0668C705.904 34.9447 693.343 74.0679 686.701 116.106L685.012 128.63L657.995 130.881C659.799 119.495 662.251 108.377 664.916 97.1668L666.719 89.6517C670.621 73.0724 674.852 56.8965 680.509 40.8235L685.294 41.3864C694.22 40.6102 698.605 37.7122 705.275 31.8177C706.119 24.5005 706.119 24.5005 705.275 18.309L700.772 16.0576C687.776 14.7132 679.704 15.9901 668.971 23.621C643.404 45.9917 643.404 45.9917 629.338 133.732L628.726 137.636L615.217 142.139C613.81 147.486 613.81 147.486 612.966 153.396C617.469 157.899 617.469 157.899 622.253 159.306L626.474 160.15C624.263 173.538 624.263 173.538 622.112 205.742L621.607 213.815L621.066 221.537C620.719 228.389 620.351 244.166 619.352 250.225C618.353 256.284 645.993 254.951 647.746 250.225C649.5 245.5 648.658 212.821 648.848 210.104C650.169 190.247 652.443 170.774 655.743 151.144L680.509 148.893C678.258 160.15 678.258 160.15 677.66 166.146L677.211 172.498C676.851 177.2 676.496 181.902 676.147 186.605L675.641 193.878L675.1 200.782C674.776 206.881 668.5 245.525 670.817 248.451C671 250.5 678.5 251 678.5 251H688.5C688.5 251 695.296 251.901 701.898 248.451C708.5 245 703.701 199.643 706.401 176.42L707.527 166.904L709.778 144.39H759.31C759.137 151.493 758.975 158.596 758.87 165.7L758.747 174.503C758.522 182.914 758.427 191.277 758.582 199.69C759.959 214.337 765.753 231.562 777.321 241.202C786.012 242.683 793.713 241.742 802.087 238.951C807.959 234.08 811.048 230.037 814.435 223.155L817.285 215.873L820.204 208.521L822.35 202.928C825.868 213.224 828.761 223.606 835.859 232.479C839.409 237.803 856.102 236.023 867.379 234.448C876.246 231.645 883.421 228.914 888.126 220.623L889.894 216.436C891.425 216.436 891.162 216.507 892.648 216.507C892.648 218.038 894.397 220.939 894.397 220.939C894.423 221.831 901.968 229.046 907.905 232.196C915.127 236.028 928.084 234.144 937.548 231.092C962.256 219.246 973.654 195.607 983.155 171.434C980.632 171.447 977.429 171.421 974.956 171.434C967.398 174.119 967.398 174.119 961.052 186.222L961.052 186.222C957.104 194.193 953.248 202.193 948.431 209.682C941.078 216.638 936.012 219.785 925.917 220.939C914.788 196.725 914.788 196.725 916.911 169.156C922.847 166.155 928.786 163.171 934.803 160.337C937.902 158.889 940.995 157.428 944.082 155.955L948.853 153.677C954.944 150.883 960.837 148.077 966.443 144.39C972.214 137.68 973.121 133.885 974.015 125.042L973.901 116.247C973.869 105.761 973.509 97.5137 968.694 88.1039C961.956 80.7714 958.592 79.2081 948.572 78.2538C933.666 79.1732 923.385 83.9321 912.461 94.0403C890.26 119.97 884.732 153.002 885.672 186.042C886.374 197.305 887.489 206.159 880.211 215.398C873.429 221.582 869.67 222.77 860.625 223.191C855.408 213.664 853.056 203.94 850.74 193.377C846.63 168.032 845.796 130.61 860.625 108.367L862.876 119.624C872.537 119.211 880.616 118.973 888.909 113.714C893.39 106.31 893.072 101.108 892.145 92.6068C887.452 85.5667 886.337 83.984 878.636 81.3495C863.845 80.1321 852.707 81.7134 840.362 90.3553C823.453 107.264 823.453 107.264 818.78 153.158C817.125 169.741 814.462 184.958 808.536 200.574L806.731 205.179C803.359 213.815 798.398 223.493 791 229.5C790.5 229.906 789.46 232.342 788.5 228C785.224 215.845 787.949 190.678 787.84 178.111L787.875 170.844C787.883 154.991 788.243 140.104 792.096 124.69C794.868 115.869 795.526 110.615 793.081 101.613L788.394 101.868L782.246 102.316L776.152 102.712C769.594 104.065 767.549 105.09 763.813 110.618L761.561 124.127H716.532C716.17 111.956 716.17 111.956 717.387 105.38L718.599 100.399L719.964 94.7884L721.457 88.9482C725.393 73.356 729.906 58.6707 736.54 43.9984C738.332 40.1194 740.015 36.1895 741.624 32.2311L743.55 27.3148C751.366 27.8731 757.015 27.3288 764.516 24.9227C770.567 20.5605 770.567 20.5605 772.818 12.5397C772.818 4.80038 772.818 4.80037 768.316 0.2975Z" fill="black"/>
<path d="M768.316 0.297474L768.807 -0.573374L768.6 -0.690099L768.363 -0.701394L768.316 0.297474ZM768.316 0.2975L769.023 -0.409605L768.926 -0.506199L768.807 -0.573348L768.316 0.2975ZM772.818 12.5397L773.781 12.81L773.818 12.6774V12.5397H772.818ZM764.516 24.9227L764.822 25.8749L764.973 25.8265L765.101 25.7338L764.516 24.9227ZM743.55 27.3148L743.621 26.3174L742.887 26.2649L742.619 26.95L743.55 27.3148ZM741.624 32.2311L742.55 32.6076L742.555 32.5958L741.624 32.2311ZM736.54 43.9984L735.632 43.579L735.629 43.5864L736.54 43.9984ZM721.457 88.9482L722.426 89.1959L722.427 89.1929L721.457 88.9482ZM719.964 94.7884L718.995 94.5406L718.992 94.552L719.964 94.7884ZM718.599 100.399L719.571 100.635L719.571 100.635L718.599 100.399ZM717.387 105.38L716.415 105.144L716.409 105.171L716.404 105.198L717.387 105.38ZM716.532 124.127L715.533 124.157L715.562 125.127H716.532V124.127ZM761.561 124.127V125.127H762.408L762.548 124.291L761.561 124.127ZM763.813 110.618L762.984 110.058L762.862 110.239L762.826 110.454L763.813 110.618ZM776.152 102.712L776.087 101.714L776.018 101.718L775.95 101.732L776.152 102.712ZM782.246 102.316L782.311 103.314L782.319 103.313L782.246 102.316ZM788.394 101.868L788.34 100.869L788.33 100.87L788.321 100.87L788.394 101.868ZM793.081 101.613L794.047 101.35L793.835 100.57L793.027 100.614L793.081 101.613ZM792.096 124.69L791.142 124.39L791.134 124.418L791.126 124.447L792.096 124.69ZM787.875 170.844L788.875 170.849L788.875 170.845L787.875 170.844ZM787.84 178.111L786.84 178.106L786.84 178.12L787.84 178.111ZM788.5 228L789.476 227.784L789.471 227.762L789.466 227.74L788.5 228ZM791 229.5L790.37 228.724L790.37 228.724L791 229.5ZM806.731 205.179L805.8 204.814L805.799 204.815L806.731 205.179ZM808.536 200.574L809.467 200.939L809.471 200.929L808.536 200.574ZM818.78 153.158L817.785 153.057L817.785 153.059L818.78 153.158ZM840.362 90.3553L839.788 89.5361L839.717 89.5863L839.655 89.6482L840.362 90.3553ZM878.636 81.3495L878.96 80.4034L878.842 80.3631L878.718 80.3529L878.636 81.3495ZM892.145 92.6068L893.139 92.4983L893.113 92.2554L892.977 92.052L892.145 92.6068ZM888.909 113.714L889.444 114.559L889.643 114.433L889.764 114.232L888.909 113.714ZM862.876 119.624L861.896 119.82L862.064 120.66L862.919 120.623L862.876 119.624ZM860.625 108.367L861.605 108.171L861.132 105.803L859.793 107.812L860.625 108.367ZM850.74 193.377L849.753 193.537L849.757 193.564L849.763 193.591L850.74 193.377ZM860.625 223.191L859.748 223.671L860.048 224.219L860.671 224.19L860.625 223.191ZM880.211 215.398L880.884 216.137L880.945 216.082L880.996 216.017L880.211 215.398ZM885.672 186.042L884.673 186.07L884.673 186.087L884.674 186.104L885.672 186.042ZM912.461 94.0403L911.782 93.3063L911.739 93.3458L911.701 93.3899L912.461 94.0403ZM948.572 78.2538L948.667 77.2583L948.589 77.2508L948.51 77.2557L948.572 78.2538ZM968.694 88.1039L969.585 87.6484L969.523 87.5273L969.431 87.4272L968.694 88.1039ZM973.901 116.247L972.901 116.25L972.901 116.26L973.901 116.247ZM974.015 125.042L975.01 125.142L975.016 125.086L975.015 125.029L974.015 125.042ZM966.443 144.39L966.992 145.225L967.11 145.148L967.201 145.042L966.443 144.39ZM948.853 153.677L948.436 152.768L948.429 152.771L948.423 152.775L948.853 153.677ZM944.082 155.955L944.513 156.858L944.513 156.857L944.082 155.955ZM934.803 160.337L934.379 159.431L934.377 159.432L934.803 160.337ZM916.911 169.156L916.46 168.263L915.957 168.518L915.914 169.079L916.911 169.156ZM925.917 220.939L925.008 221.357L925.311 222.015L926.03 221.933L925.917 220.939ZM948.431 209.682L949.118 210.408L949.207 210.325L949.272 210.223L948.431 209.682ZM961.052 186.222L961.948 186.666L961.965 186.63L961.98 186.593L961.052 186.222ZM961.052 186.222L960.166 185.757L960.142 185.803L960.123 185.85L961.052 186.222ZM974.956 171.434L974.951 170.434L974.781 170.435L974.621 170.491L974.956 171.434ZM983.155 171.434L984.086 171.8L984.626 170.426L983.15 170.434L983.155 171.434ZM937.548 231.092L937.855 232.044L937.919 232.023L937.98 231.994L937.548 231.092ZM907.905 232.196L908.374 231.313L908.374 231.313L907.905 232.196ZM894.397 220.939L895.396 220.91L895.388 220.648L895.253 220.423L894.397 220.939ZM892.648 216.507H893.648V215.507H892.648V216.507ZM889.894 216.436V215.436H889.23L888.972 216.047L889.894 216.436ZM888.126 220.623L888.996 221.116L889.024 221.065L889.047 221.012L888.126 220.623ZM867.379 234.448L867.518 235.438L867.601 235.427L867.681 235.401L867.379 234.448ZM835.859 232.479L836.691 231.924L836.667 231.888L836.64 231.854L835.859 232.479ZM822.35 202.928L823.297 202.604L822.405 199.994L821.417 202.569L822.35 202.928ZM820.204 208.521L821.134 208.89L821.138 208.879L820.204 208.521ZM817.285 215.873L816.355 215.504L816.353 215.509L817.285 215.873ZM814.435 223.155L815.332 223.597L815.351 223.559L815.366 223.52L814.435 223.155ZM802.087 238.951L802.403 239.899L802.581 239.84L802.726 239.72L802.087 238.951ZM777.321 241.202L776.681 241.97L776.888 242.143L777.153 242.188L777.321 241.202ZM758.582 199.69L757.582 199.708L757.583 199.746L757.586 199.784L758.582 199.69ZM758.747 174.503L759.747 174.53L759.747 174.517L758.747 174.503ZM758.87 165.7L757.87 165.685L757.87 165.686L758.87 165.7ZM759.31 144.39L760.309 144.414L760.334 143.39H759.31V144.39ZM709.778 144.39V143.39H708.873L708.783 144.29L709.778 144.39ZM707.527 166.904L708.52 167.022L708.521 167.013L708.522 167.004L707.527 166.904ZM706.401 176.42L705.408 176.303L705.408 176.305L706.401 176.42ZM670.817 248.451L671.813 248.362L671.786 248.064L671.601 247.83L670.817 248.451ZM675.1 200.782L674.103 200.704L674.103 200.716L674.102 200.729L675.1 200.782ZM675.641 193.878L676.638 193.956L676.639 193.947L675.641 193.878ZM676.147 186.605L675.15 186.531L675.149 186.535L676.147 186.605ZM677.211 172.498L678.208 172.574L678.209 172.568L677.211 172.498ZM677.66 166.146L676.665 166.047L676.664 166.061L676.663 166.075L677.66 166.146ZM680.509 148.893L681.49 149.089L681.752 147.776L680.419 147.897L680.509 148.893ZM655.743 151.144L655.653 150.148L654.885 150.218L654.757 150.979L655.743 151.144ZM648.848 210.104L649.846 210.174L649.846 210.17L648.848 210.104ZM619.352 250.225L620.339 250.388L620.339 250.388L619.352 250.225ZM621.066 221.537L620.068 221.467L620.068 221.477L620.067 221.487L621.066 221.537ZM621.607 213.815L622.604 213.885L622.605 213.878L621.607 213.815ZM622.112 205.742L621.115 205.675L621.114 205.679L622.112 205.742ZM626.474 160.15L627.461 160.313L627.619 159.359L626.671 159.17L626.474 160.15ZM622.253 159.306L621.971 160.265L622.013 160.278L622.057 160.286L622.253 159.306ZM612.966 153.396L611.976 153.254L611.905 153.749L612.259 154.103L612.966 153.396ZM615.217 142.139L614.901 141.19L614.388 141.361L614.25 141.884L615.217 142.139ZM628.726 137.636L629.042 138.584L629.62 138.392L629.714 137.791L628.726 137.636ZM629.338 133.732L628.351 133.574L628.35 133.577L629.338 133.732ZM668.971 23.621L668.391 22.806L668.35 22.8353L668.312 22.8685L668.971 23.621ZM700.772 16.0576L701.219 15.1632L701.056 15.0817L700.875 15.0629L700.772 16.0576ZM705.275 18.309L706.266 18.1739L706.195 17.6508L705.722 17.4146L705.275 18.309ZM705.275 31.8177L705.937 32.567L706.225 32.3132L706.268 31.9323L705.275 31.8177ZM685.294 41.3864L685.177 42.3795L685.278 42.3915L685.38 42.3826L685.294 41.3864ZM680.509 40.8235L680.626 39.8303L679.831 39.7369L679.566 40.4915L680.509 40.8235ZM666.719 89.6517L667.691 89.885L667.692 89.8808L666.719 89.6517ZM664.916 97.1668L663.944 96.9335L663.943 96.9355L664.916 97.1668ZM657.995 130.881L657.007 130.725L656.808 131.984L658.078 131.878L657.995 130.881ZM685.012 128.63L685.095 129.626L685.896 129.56L686.003 128.763L685.012 128.63ZM686.701 116.106L685.713 115.95L685.711 115.961L685.71 115.973L686.701 116.106ZM738.484 6.0668L737.914 5.24543L737.865 5.2792L737.821 5.31846L738.484 6.0668ZM678.5 251L678.433 251.998L678.467 252H678.5V251ZM688.5 251L688.631 250.009L688.566 250H688.5V251ZM768.316 0.297474L767.824 1.16832L767.824 1.16835L768.316 0.2975L768.807 -0.573348L768.807 -0.573374L768.316 0.297474ZM768.316 0.2975L767.609 1.0046C769.919 3.31505 770.847 4.27252 771.317 5.55014C771.551 6.18477 771.682 6.94143 771.75 8.05566C771.818 9.17702 771.818 10.5927 771.818 12.5397H772.818H773.818C773.818 10.6171 773.819 9.13049 773.746 7.93444C773.673 6.73127 773.524 5.75538 773.194 4.85973C772.538 3.07679 771.215 1.78282 769.023 -0.409605L768.316 0.2975ZM772.818 12.5397L771.856 12.2695C770.71 16.3505 770.188 18.1637 769.262 19.5463C768.347 20.9109 767.014 21.8895 763.931 24.1115L764.516 24.9227L765.101 25.7338C768.07 23.5936 769.762 22.3911 770.923 20.66C772.071 18.9469 772.675 16.7497 773.781 12.81L772.818 12.5397ZM764.516 24.9227L764.211 23.9704C756.843 26.3337 751.323 26.8675 743.621 26.3174L743.55 27.3148L743.478 28.3123C751.409 28.8787 757.186 28.3239 764.822 25.8749L764.516 24.9227ZM743.55 27.3148L742.619 26.95L740.693 31.8663L741.624 32.2311L742.555 32.5958L744.481 27.6796L743.55 27.3148ZM741.624 32.2311L740.697 31.8546C739.093 35.8016 737.416 39.7169 735.632 43.579L736.54 43.9984L737.448 44.4177C739.248 40.5219 740.937 36.5773 742.55 32.6075L741.624 32.2311ZM736.54 43.9984L735.629 43.5864C728.962 58.3328 724.432 73.0804 720.488 88.7034L721.457 88.9482L722.427 89.1929C726.355 73.6317 730.851 59.0086 737.451 44.4104L736.54 43.9984ZM721.457 88.9482L720.489 88.7004L718.995 94.5406L719.964 94.7884L720.933 95.0361L722.426 89.1959L721.457 88.9482ZM719.964 94.7884L718.992 94.552L717.627 100.162L718.599 100.399L719.571 100.635L720.936 95.0248L719.964 94.7884ZM718.599 100.399L717.627 100.162L716.415 105.144L717.387 105.38L718.359 105.616L719.571 100.635L718.599 100.399ZM717.387 105.38L716.404 105.198C715.797 108.477 715.479 110.187 715.368 112.61C715.259 115.001 715.352 118.092 715.533 124.157L716.532 124.127L717.532 124.097C717.35 117.991 717.262 114.997 717.366 112.701C717.469 110.437 717.76 108.859 718.37 105.562L717.387 105.38ZM716.532 124.127V125.127H761.561V124.127V123.127H716.532V124.127ZM761.561 124.127L762.548 124.291L764.799 110.783L763.813 110.618L762.826 110.454L760.575 123.963L761.561 124.127ZM763.813 110.618L764.641 111.178C766.486 108.449 767.836 106.953 769.452 105.949C771.084 104.935 773.076 104.367 776.354 103.691L776.152 102.712L775.95 101.732C772.67 102.409 770.36 103.03 768.397 104.25C766.417 105.479 764.876 107.259 762.984 110.058L763.813 110.618ZM776.152 102.712L776.216 103.71L782.311 103.314L782.246 102.316L782.182 101.318L776.087 101.714L776.152 102.712ZM782.246 102.316L782.319 103.313L788.467 102.865L788.394 101.868L788.321 100.87L782.174 101.319L782.246 102.316ZM788.394 101.868L788.448 102.866L793.136 102.611L793.081 101.613L793.027 100.614L788.34 100.869L788.394 101.868ZM793.081 101.613L792.116 101.875C793.319 106.302 793.744 109.755 793.547 113.161C793.349 116.579 792.52 120.005 791.142 124.39L792.096 124.69L793.05 124.99C794.445 120.553 795.331 116.942 795.544 113.277C795.757 109.6 795.289 105.926 794.047 101.35L793.081 101.613ZM792.096 124.69L791.126 124.447C787.24 139.991 786.883 154.985 786.875 170.844L787.875 170.844L788.875 170.845C788.883 154.996 789.245 140.217 793.067 124.932L792.096 124.69ZM787.875 170.844L786.875 170.84L786.84 178.106L787.84 178.111L788.84 178.116L788.875 170.849L787.875 170.844ZM787.84 178.111L786.84 178.12C786.895 184.389 786.243 193.723 785.983 203.183C785.725 212.546 785.853 222.02 787.534 228.26L788.5 228L789.466 227.74C787.872 221.825 787.724 212.638 787.982 203.238C788.238 193.933 788.895 184.4 788.84 178.102L787.84 178.111ZM788.5 228L787.524 228.216C787.769 229.327 788.044 230.132 788.383 230.662C788.556 230.934 788.79 231.201 789.111 231.372C789.462 231.559 789.837 231.588 790.178 231.497C790.488 231.416 790.726 231.249 790.887 231.113C791.053 230.973 791.193 230.817 791.299 230.691C791.397 230.574 791.512 230.426 791.567 230.358C791.652 230.253 791.661 230.251 791.63 230.276L791 229.5L790.37 228.724C790.214 228.85 790.082 229.014 790.01 229.103C789.908 229.229 789.853 229.303 789.768 229.404C789.691 229.496 789.636 229.552 789.598 229.584C789.554 229.621 789.579 229.587 789.667 229.564C789.787 229.532 789.934 229.545 790.051 229.607C790.14 229.654 790.135 229.689 790.068 229.585C789.926 229.363 789.711 228.844 789.476 227.784L788.5 228ZM791 229.5L791.63 230.276C799.238 224.099 804.276 214.215 807.662 205.543L806.731 205.179L805.799 204.815C802.442 213.414 797.558 222.887 790.37 228.724L791 229.5ZM806.731 205.179L807.662 205.544L809.467 200.939L808.536 200.574L807.605 200.209L805.8 204.814L806.731 205.179ZM808.536 200.574L809.471 200.929C815.44 185.199 818.115 169.887 819.775 153.258L818.78 153.158L817.785 153.059C816.134 169.596 813.484 184.716 807.601 200.219L808.536 200.574ZM818.78 153.158L819.774 153.26C822.118 130.245 823.278 118.924 825.928 111.212C828.539 103.615 832.588 99.5429 841.069 91.0624L840.362 90.3553L839.655 89.6482C831.227 98.0763 826.822 102.459 824.037 110.562C821.291 118.551 820.115 130.177 817.785 153.057L818.78 153.158ZM840.362 90.3553L840.935 91.1745C853.033 82.7064 863.915 81.1413 878.554 82.3461L878.636 81.3495L878.718 80.3529C863.776 79.123 852.382 80.7203 839.788 89.5361L840.362 90.3553ZM878.636 81.3495L878.313 82.2957C882.132 83.6024 884.183 84.6059 885.859 86.0775C887.566 87.577 888.943 89.6056 891.313 93.1615L892.145 92.6068L892.977 92.052C890.654 88.5678 889.126 86.2851 887.178 84.5746C885.199 82.8363 882.841 81.7311 878.96 80.4034L878.636 81.3495ZM892.145 92.6068L891.151 92.7152C891.616 96.9766 891.912 100.298 891.561 103.461C891.214 106.591 890.227 109.605 888.053 113.196L888.909 113.714L889.764 114.232C892.072 110.42 893.167 107.13 893.549 103.682C893.928 100.268 893.602 96.7377 893.139 92.4983L892.145 92.6068ZM888.909 113.714L888.373 112.87C880.34 117.964 872.533 118.211 862.834 118.625L862.876 119.624L862.919 120.623C872.541 120.212 880.892 119.982 889.444 114.559L888.909 113.714ZM862.876 119.624L863.857 119.428L861.605 108.171L860.625 108.367L859.644 108.563L861.896 119.82L862.876 119.624ZM860.625 108.367L859.793 107.812C852.242 119.139 848.72 134.253 847.583 149.635C846.444 165.034 847.688 180.806 849.753 193.537L850.74 193.377L851.727 193.216C849.681 180.602 848.453 164.991 849.578 149.782C850.703 134.556 854.18 119.838 861.457 108.922L860.625 108.367ZM850.74 193.377L849.763 193.591C852.079 204.155 854.455 214.006 859.748 223.671L860.625 223.191L861.502 222.71C856.361 213.322 854.032 203.725 851.716 193.162L850.74 193.377ZM860.625 223.191L860.671 224.19C865.216 223.978 868.551 223.571 871.625 222.389C874.71 221.202 877.453 219.266 880.884 216.137L880.211 215.398L879.537 214.66C876.187 217.714 873.659 219.464 870.907 220.522C868.146 221.584 865.078 221.982 860.578 222.192L860.625 223.191ZM880.211 215.398L880.996 216.017C888.552 206.427 887.367 197.154 886.67 185.98L885.672 186.042L884.674 186.104C885.382 197.456 886.427 205.892 879.425 214.78L880.211 215.398ZM885.672 186.042L886.672 186.013C885.735 153.084 891.253 120.348 913.221 94.6907L912.461 94.0403L911.701 93.3899C889.267 119.592 883.73 152.92 884.673 186.07L885.672 186.042ZM912.461 94.0403L913.14 94.7743C923.909 84.8102 933.976 80.156 948.634 79.2519L948.572 78.2538L948.51 77.2557C933.357 78.1904 922.862 83.054 911.782 93.3063L912.461 94.0403ZM948.572 78.2538L948.477 79.2493C953.464 79.7242 956.66 80.3419 959.427 81.6864C962.189 83.0288 964.612 85.1388 967.958 88.7805L968.694 88.1039L969.431 87.4272C966.039 83.7364 963.41 81.3985 960.301 79.8876C957.196 78.3787 953.7 77.7376 948.667 77.2583L948.572 78.2538ZM968.694 88.1039L967.804 88.5594C972.503 97.743 972.869 105.782 972.901 116.25L973.901 116.247L974.901 116.244C974.869 105.74 974.515 97.2844 969.585 87.6484L968.694 88.1039ZM973.901 116.247L972.901 116.26L973.015 125.055L974.015 125.042L975.015 125.029L974.901 116.234L973.901 116.247ZM974.015 125.042L973.02 124.941C972.573 129.362 972.131 132.409 971.119 135.172C970.115 137.913 968.525 140.436 965.685 143.738L966.443 144.39L967.201 145.042C970.132 141.634 971.881 138.905 972.997 135.86C974.104 132.837 974.563 129.565 975.01 125.142L974.015 125.042ZM966.443 144.39L965.893 143.555C960.357 147.196 954.525 149.975 948.436 152.768L948.853 153.677L949.27 154.586C955.362 151.791 961.317 148.958 966.992 145.225L966.443 144.39ZM948.853 153.677L948.423 152.775L943.651 155.053L944.082 155.955L944.513 156.857L949.284 154.58L948.853 153.677ZM944.082 155.955L943.652 155.052C940.567 156.524 937.476 157.984 934.379 159.431L934.803 160.337L935.226 161.243C938.328 159.794 941.423 158.332 944.513 156.858L944.082 155.955ZM934.803 160.337L934.377 159.432C928.346 162.273 922.396 165.263 916.46 168.263L916.911 169.156L917.362 170.048C923.298 167.048 929.226 164.069 935.229 161.242L934.803 160.337ZM916.911 169.156L915.914 169.079C914.856 182.812 914.307 189.852 915.459 196.477C916.612 203.107 919.465 209.296 925.008 221.357L925.917 220.939L926.825 220.522C921.24 208.368 918.528 202.449 917.43 196.134C916.33 189.814 916.842 183.069 917.908 169.233L916.911 169.156ZM925.917 220.939L926.03 221.933C931.167 221.346 935.083 220.244 938.665 218.373C942.235 216.508 945.419 213.908 949.118 210.408L948.431 209.682L947.744 208.955C944.09 212.412 941.065 214.863 937.739 216.6C934.427 218.33 930.762 219.379 925.803 219.946L925.917 220.939ZM948.431 209.682L949.272 210.223C954.126 202.676 958.009 194.619 961.948 186.666L961.052 186.222L960.156 185.778C956.199 193.768 952.37 201.71 947.59 209.141L948.431 209.682ZM961.052 186.222L961.98 186.593L961.98 186.593L961.052 186.222L960.123 185.85L960.123 185.851L961.052 186.222ZM961.052 186.222L961.937 186.686C963.528 183.653 964.707 181.406 965.704 179.685C966.702 177.963 967.488 176.822 968.278 175.981C969.82 174.341 971.459 173.738 975.291 172.376L974.956 171.434L974.621 170.491C970.895 171.815 968.755 172.555 966.821 174.611C965.873 175.619 964.997 176.916 963.974 178.682C962.95 180.448 961.749 182.74 960.166 185.757L961.052 186.222ZM974.956 171.434L974.961 172.434C976.193 172.427 977.608 172.431 979.034 172.434C980.459 172.437 981.894 172.44 983.16 172.434L983.155 171.434L983.15 170.434C981.893 170.44 980.465 170.437 979.039 170.434C977.615 170.431 976.192 170.427 974.951 170.434L974.956 171.434ZM983.155 171.434L982.224 171.068C972.723 195.241 961.44 218.528 937.115 230.19L937.548 231.092L937.98 231.994C963.071 219.964 974.584 195.972 984.086 171.8L983.155 171.434ZM937.548 231.092L937.241 230.14C932.57 231.646 927.045 232.861 921.816 233.228C916.556 233.597 911.738 233.098 908.374 231.313L907.905 232.196L907.437 233.08C911.295 235.127 916.566 235.601 921.956 235.223C927.376 234.843 933.061 233.589 937.855 232.044L937.548 231.092ZM907.905 232.196L908.374 231.313C905.504 229.791 902.201 227.257 899.594 224.969C898.295 223.83 897.188 222.768 896.41 221.945C896.02 221.531 895.726 221.192 895.536 220.943C895.44 220.817 895.384 220.732 895.357 220.685C895.306 220.594 895.39 220.7 895.396 220.91L894.397 220.939L893.397 220.968C893.406 221.29 893.553 221.557 893.617 221.671C893.707 221.829 893.822 221.994 893.946 222.156C894.197 222.485 894.543 222.88 894.956 223.318C895.787 224.197 896.942 225.303 898.275 226.473C900.931 228.803 904.369 231.452 907.437 233.08L907.905 232.196ZM894.397 220.939C895.253 220.423 895.253 220.423 895.253 220.423C895.253 220.423 895.253 220.423 895.253 220.423C895.253 220.423 895.253 220.423 895.253 220.423C895.253 220.423 895.253 220.423 895.253 220.422C895.252 220.422 895.251 220.42 895.25 220.418C895.247 220.413 895.243 220.406 895.237 220.397C895.226 220.377 895.209 220.348 895.186 220.309C895.141 220.232 895.076 220.119 894.998 219.977C894.841 219.694 894.632 219.302 894.425 218.867C894.216 218.429 894.016 217.962 893.869 217.527C893.717 217.074 893.648 216.728 893.648 216.507H892.648H891.648C891.648 217.052 891.798 217.642 891.973 218.164C892.155 218.703 892.391 219.249 892.62 219.728C892.849 220.209 893.078 220.638 893.249 220.947C893.334 221.101 893.406 221.226 893.457 221.314C893.482 221.358 893.502 221.392 893.517 221.416C893.524 221.428 893.529 221.437 893.533 221.444C893.535 221.447 893.537 221.45 893.538 221.452C893.538 221.453 893.539 221.453 893.539 221.454C893.54 221.454 893.54 221.455 893.54 221.455C893.54 221.455 893.54 221.455 893.54 221.455C893.54 221.455 893.54 221.455 894.397 220.939ZM892.648 216.507V215.507C891.928 215.507 891.642 215.49 891.344 215.473C891.018 215.455 890.681 215.436 889.894 215.436V216.436V217.436C890.637 217.436 890.935 217.453 891.231 217.47C891.556 217.489 891.882 217.507 892.648 217.507V216.507ZM889.894 216.436L888.972 216.047L887.205 220.234L888.126 220.623L889.047 221.012L890.815 216.825L889.894 216.436ZM888.126 220.623L887.256 220.129C882.759 228.054 875.938 230.693 867.078 233.494L867.379 234.448L867.681 235.401C876.554 232.596 884.082 229.774 888.996 221.116L888.126 220.623ZM867.379 234.448L867.241 233.457C861.606 234.244 854.674 235.074 848.725 235.05C845.748 235.039 843.066 234.813 840.937 234.284C838.777 233.746 837.37 232.942 836.691 231.924L835.859 232.479L835.027 233.034C836.124 234.678 838.134 235.647 840.454 236.225C842.806 236.809 845.668 237.039 848.717 237.05C854.821 237.074 861.875 236.226 867.518 235.438L867.379 234.448ZM835.859 232.479L836.64 231.854C829.678 223.151 826.841 212.981 823.297 202.604L822.35 202.928L821.404 203.251C824.894 213.467 827.843 224.06 835.078 233.104L835.859 232.479ZM822.35 202.928L821.417 202.569L819.271 208.163L820.204 208.521L821.138 208.879L823.284 203.286L822.35 202.928ZM820.204 208.521L819.275 208.152L816.355 215.504L817.285 215.873L818.214 216.242L821.134 208.89L820.204 208.521ZM817.285 215.873L816.353 215.509L813.504 222.791L814.435 223.155L815.366 223.52L818.216 216.238L817.285 215.873ZM814.435 223.155L813.538 222.714C810.209 229.477 807.205 233.406 801.449 238.181L802.087 238.951L802.726 239.72C808.713 234.754 811.887 230.596 815.332 223.597L814.435 223.155ZM802.087 238.951L801.771 238.002C793.523 240.751 785.99 241.665 777.489 240.216L777.321 241.202L777.153 242.188C786.034 243.701 793.903 242.733 802.403 239.899L802.087 238.951ZM777.321 241.202L777.962 240.434C766.684 231.036 760.943 214.122 759.578 199.596L758.582 199.69L757.586 199.784C758.975 214.552 764.822 232.087 776.681 241.97L777.321 241.202ZM758.582 199.69L759.582 199.672C759.427 191.278 759.522 182.931 759.747 174.53L758.747 174.503L757.747 174.476C757.522 182.897 757.427 191.276 757.582 199.708L758.582 199.69ZM758.747 174.503L759.747 174.517L759.87 165.714L758.87 165.7L757.87 165.686L757.747 174.489L758.747 174.503ZM758.87 165.7L759.87 165.714C759.975 158.615 760.137 151.516 760.309 144.414L759.31 144.39L758.31 144.366C758.137 151.469 757.975 158.576 757.87 165.685L758.87 165.7ZM759.31 144.39V143.39H709.778V144.39V145.39H759.31V144.39ZM709.778 144.39L708.783 144.29L706.531 166.805L707.527 166.904L708.522 167.004L710.773 144.49L709.778 144.39ZM707.527 166.904L706.533 166.787L705.408 176.303L706.401 176.42L707.394 176.538L708.52 167.022L707.527 166.904ZM706.401 176.42L705.408 176.305C704.049 187.994 704.576 205.24 704.613 219.852C704.631 227.19 704.527 233.862 704.012 238.904C703.754 241.429 703.398 243.497 702.922 245.019C702.425 246.605 701.877 247.333 701.435 247.564L701.898 248.451L702.361 249.337C703.57 248.705 704.316 247.261 704.831 245.616C705.366 243.906 705.739 241.683 706.002 239.107C706.529 233.949 706.631 227.183 706.613 219.847C706.576 205.113 706.053 188.069 707.394 176.536L706.401 176.42ZM670.817 248.451L671.601 247.83C671.619 247.852 671.54 247.742 671.463 247.321C671.394 246.942 671.346 246.427 671.322 245.776C671.274 244.478 671.328 242.743 671.461 240.691C671.727 236.591 672.301 231.319 672.961 225.928C673.62 220.539 674.361 215.053 674.96 210.522C675.554 206.02 676.015 202.409 676.099 200.835L675.1 200.782L674.102 200.729C674.023 202.203 673.578 205.711 672.977 210.261C672.38 214.783 671.636 220.284 670.975 225.685C670.315 231.083 669.735 236.402 669.465 240.561C669.331 242.638 669.272 244.451 669.323 245.849C669.349 246.547 669.403 247.168 669.496 247.68C669.582 248.15 669.726 248.683 670.033 249.072L670.817 248.451ZM675.1 200.782L676.097 200.86L676.638 193.956L675.641 193.878L674.644 193.8L674.103 200.704L675.1 200.782ZM675.641 193.878L676.639 193.947L677.145 186.674L676.147 186.605L675.149 186.535L674.644 193.808L675.641 193.878ZM676.147 186.605L677.144 186.679C677.493 181.977 677.848 177.275 678.208 172.574L677.211 172.498L676.214 172.421C675.853 177.124 675.499 181.827 675.15 186.531L676.147 186.605ZM677.211 172.498L678.209 172.568L678.658 166.216L677.66 166.146L676.663 166.075L676.214 172.427L677.211 172.498ZM677.66 166.146L678.655 166.245C679.248 160.299 679.24 160.337 681.49 149.089L680.509 148.893L679.529 148.697C677.275 159.963 677.268 160.001 676.665 166.047L677.66 166.146ZM680.509 148.893L680.419 147.897L655.653 150.148L655.743 151.144L655.834 152.14L680.6 149.889L680.509 148.893ZM655.743 151.144L654.757 150.979C651.451 170.641 649.173 190.147 647.85 210.038L648.848 210.104L649.846 210.17C651.164 190.346 653.435 170.907 656.729 151.31L655.743 151.144ZM648.848 210.104L647.851 210.034C647.8 210.764 647.818 213.379 647.842 216.862C647.867 220.382 647.9 224.864 647.884 229.408C647.867 233.954 647.802 238.55 647.633 242.3C647.548 244.175 647.437 245.827 647.295 247.149C647.15 248.503 646.98 249.417 646.809 249.877L647.746 250.225L648.684 250.573C648.951 249.853 649.139 248.712 649.284 247.363C649.432 245.983 649.545 244.285 649.631 242.39C649.802 238.599 649.867 233.969 649.884 229.415C649.9 224.859 649.867 220.367 649.842 216.848C649.817 213.292 649.802 210.803 649.846 210.174L648.848 210.104ZM619.352 250.225L620.339 250.388C620.85 247.29 621.193 241.77 621.453 236.225C621.715 230.622 621.89 225.033 622.064 221.588L621.066 221.537L620.067 221.487C619.895 224.893 619.713 230.619 619.455 236.132C619.194 241.704 618.854 247.102 618.365 250.063L619.352 250.225ZM621.066 221.537L622.063 221.607L622.604 213.885L621.607 213.815L620.609 213.746L620.068 221.467L621.066 221.537ZM621.607 213.815L622.605 213.878L623.11 205.804L622.112 205.742L621.114 205.679L620.609 213.753L621.607 213.815ZM622.112 205.742L623.11 205.809C625.261 173.605 625.258 173.648 627.461 160.313L626.474 160.15L625.488 159.987C623.267 173.427 623.265 173.47 621.115 205.675L622.112 205.742ZM626.474 160.15L626.671 159.17L622.449 158.325L622.253 159.306L622.057 160.286L626.278 161.131L626.474 160.15ZM622.253 159.306L622.535 158.346C620.1 157.63 619.058 157.315 618.041 156.668C616.996 156.003 615.961 154.977 613.673 152.689L612.966 153.396L612.259 154.103C614.473 156.317 615.69 157.543 616.967 158.355C618.272 159.186 619.621 159.574 621.971 160.265L622.253 159.306ZM612.966 153.396L613.956 153.537C614.795 147.662 614.788 147.7 616.184 142.393L615.217 142.139L614.25 141.884C612.833 147.271 612.825 147.309 611.976 153.254L612.966 153.396ZM615.217 142.139L615.533 143.087L629.042 138.584L628.726 137.636L628.41 136.687L614.901 141.19L615.217 142.139ZM628.726 137.636L629.714 137.791L630.326 133.887L629.338 133.732L628.35 133.577L627.738 137.481L628.726 137.636ZM629.338 133.732L630.326 133.89C637.368 89.9613 640.869 68.1528 645.783 54.5016C650.641 41.0038 656.846 35.5586 669.629 24.3736L668.971 23.621L668.312 22.8685C655.528 34.0542 648.951 39.7943 643.901 53.8243C638.906 67.7008 635.374 89.7623 628.351 133.574L629.338 133.732ZM668.971 23.621L669.55 24.4361C674.837 20.6772 679.417 18.519 684.239 17.4498C689.073 16.3781 694.219 16.385 700.669 17.0523L700.772 16.0576L700.875 15.0629C694.33 14.3858 688.941 14.3589 683.806 15.4973C678.661 16.6382 673.837 18.934 668.391 22.806L668.971 23.621ZM700.772 16.0576L700.325 16.952L704.828 19.2035L705.275 18.309L705.722 17.4146L701.219 15.1632L700.772 16.0576ZM705.275 18.309L704.284 18.4442C704.709 21.5615 704.908 23.035 704.908 24.6412C704.908 26.2585 704.707 28.0198 704.282 31.7031L705.275 31.8177L706.268 31.9323C706.688 28.2985 706.908 26.4012 706.908 24.6412C706.908 22.8703 706.685 21.248 706.266 18.1739L705.275 18.309ZM705.275 31.8177L704.613 31.0684C701.289 34.0056 698.603 36.133 695.675 37.6311C692.766 39.1196 689.568 40.0109 685.207 40.3901L685.294 41.3864L685.38 42.3826C689.945 41.9856 693.403 41.0399 696.586 39.4116C699.749 37.7931 702.591 35.5242 705.937 32.567L705.275 31.8177ZM685.294 41.3864L685.41 40.3932L680.626 39.8303L680.509 40.8235L680.392 41.8166L685.177 42.3795L685.294 41.3864ZM680.509 40.8235L679.566 40.4915C673.892 56.6139 669.651 72.8297 665.746 89.4226L666.719 89.6517L667.692 89.8808C671.591 73.3152 675.813 57.1791 681.452 41.1555L680.509 40.8235ZM666.719 89.6517L665.747 89.4184L663.944 96.9335L664.916 97.1668L665.889 97.4001L667.691 89.885L666.719 89.6517ZM664.916 97.1668L663.943 96.9355C661.276 108.155 658.817 119.301 657.007 130.725L657.995 130.881L658.982 131.038C660.78 119.689 663.225 108.6 665.889 97.3981L664.916 97.1668ZM657.995 130.881L658.078 131.878L685.095 129.626L685.012 128.63L684.929 127.633L657.912 129.885L657.995 130.881ZM685.012 128.63L686.003 128.763L687.692 116.24L686.701 116.106L685.71 115.973L684.021 128.496L685.012 128.63ZM686.701 116.106L687.688 116.262C694.318 74.3047 706.827 35.4627 739.147 6.81515L738.484 6.0668L737.821 5.31846C704.98 34.4267 692.368 73.8312 685.713 115.95L686.701 116.106ZM738.484 6.0668L739.054 6.88817C748.612 0.251223 756.665 0.743823 768.268 1.29634L768.316 0.297474L768.363 -0.701394C756.808 -1.25164 748.093 -1.82377 737.914 5.24543L738.484 6.0668ZM619.352 250.225L618.365 250.063C618.166 251.271 618.726 252.245 619.586 252.938C620.41 253.601 621.572 254.072 622.866 254.413C625.473 255.1 628.994 255.354 632.541 255.269C636.097 255.185 639.76 254.758 642.669 254.042C644.12 253.685 645.423 253.246 646.442 252.719C647.417 252.214 648.33 251.528 648.684 250.573L647.746 250.225L646.809 249.877C646.725 250.104 646.391 250.493 645.522 250.942C644.698 251.369 643.562 251.762 642.191 252.1C639.455 252.773 635.942 253.188 632.493 253.27C629.035 253.352 625.725 253.098 623.375 252.479C622.191 252.167 621.344 251.785 620.84 251.38C620.374 251.004 620.288 250.695 620.339 250.388L619.352 250.225ZM670.817 248.451L669.821 248.54C669.872 249.115 670.178 249.56 670.514 249.876C670.846 250.189 671.26 250.431 671.677 250.622C672.512 251.006 673.556 251.279 674.53 251.474C675.517 251.673 676.491 251.803 677.214 251.884C677.577 251.924 677.879 251.953 678.092 251.971C678.198 251.98 678.282 251.987 678.34 251.991C678.369 251.993 678.392 251.995 678.408 251.996C678.415 251.997 678.422 251.997 678.426 251.997C678.428 251.997 678.43 251.998 678.431 251.998C678.432 251.998 678.432 251.998 678.433 251.998C678.433 251.998 678.433 251.998 678.433 251.998C678.433 251.998 678.433 251.998 678.5 251C678.567 250.002 678.567 250.002 678.567 250.002C678.567 250.002 678.567 250.002 678.567 250.002C678.567 250.002 678.566 250.002 678.566 250.002C678.566 250.002 678.565 250.002 678.563 250.002C678.56 250.002 678.556 250.001 678.549 250.001C678.537 250 678.517 249.999 678.491 249.997C678.439 249.993 678.362 249.987 678.263 249.978C678.065 249.961 677.78 249.934 677.436 249.896C676.747 249.819 675.835 249.696 674.924 249.513C674.001 249.328 673.135 249.091 672.512 248.805C672.2 248.661 671.999 248.528 671.886 248.421C671.776 248.318 671.807 248.298 671.813 248.362L670.817 248.451ZM678.5 251V252H688.5V251V250H678.5V251ZM688.5 251C688.369 251.991 688.369 251.991 688.369 251.991C688.369 251.991 688.37 251.991 688.37 251.992C688.371 251.992 688.371 251.992 688.372 251.992C688.374 251.992 688.376 251.992 688.378 251.993C688.383 251.993 688.39 251.994 688.398 251.995C688.414 251.997 688.437 252 688.467 252.003C688.525 252.01 688.608 252.018 688.715 252.028C688.929 252.047 689.236 252.07 689.624 252.086C690.398 252.118 691.495 252.123 692.805 252.016C695.417 251.803 698.907 251.142 702.361 249.337L701.898 248.451L701.435 247.564C698.287 249.21 695.078 249.824 692.642 250.023C691.427 250.122 690.412 250.117 689.706 250.088C689.354 250.073 689.078 250.053 688.895 250.036C688.803 250.028 688.734 250.02 688.689 250.016C688.667 250.013 688.651 250.011 688.641 250.01C688.636 250.009 688.633 250.009 688.632 250.009C688.631 250.009 688.63 250.009 688.63 250.009C688.63 250.009 688.63 250.009 688.631 250.009C688.631 250.009 688.631 250.009 688.631 250.009C688.631 250.009 688.631 250.009 688.5 251Z" fill="black" mask="url(#path-14-inside-1_7_871)"/>
<path d="M770.198 53.2395C771.972 49.6902 779.071 46.1409 793.268 40.8169C807.465 35.493 809.24 51.4648 803.916 58.5634C798.592 65.662 782.62 62.1127 777.296 63.8874C771.972 65.662 768.423 56.7888 770.198 53.2395Z" fill="black" stroke="black"/>
<path d="M952.986 120.676C956.535 115.352 952.986 97.6058 944.112 99.3804C935.239 101.155 912.169 133.099 913.943 140.197C915.718 147.296 949.436 126 952.986 120.676Z" fill="white" stroke="black"/>
</svg>
